<svg width="16" height="16" viewBox="0 0 16 16" fill="none" xmlns="http://www.w3.org/2000/svg">
<path d="M9.93325 1.33334H6.06659C5.61326 1.33334 4.97325 1.60001 4.65325 1.92001L1.91992 4.65334C1.59992 4.97334 1.33325 5.61334 1.33325 6.06667V9.93333C1.33325 10.3867 1.59992 11.0267 1.91992 11.3467L4.65325 14.08C4.97325 14.4 5.61326 14.6667 6.06659 14.6667H9.93325C10.3866 14.6667 11.0266 14.4 11.3466 14.08L14.0799 11.3467C14.3999 11.0267 14.6666 10.3867 14.6666 9.93333V6.06667C14.6666 5.61334 14.3999 4.97334 14.0799 4.65334L11.3466 1.92001C11.0266 1.60001 10.3866 1.33334 9.93325 1.33334Z" stroke="#292D32" stroke-width="1.5" stroke-linecap="round" stroke-linejoin="round"/>
<path d="M5.66675 10.3333L10.3334 5.66666" stroke="#292D32" stroke-width="1.5" stroke-linecap="round" stroke-linejoin="round"/>
<path d="M10.3334 10.3333L5.66675 5.66666" stroke="#292D32" stroke-width="1.5" stroke-linecap="round" stroke-linejoin="round"/>
</svg>
